<svg width="11" height="14" viewBox="0 0 11 14" fill="none" xmlns="http://www.w3.org/2000/svg">
<path fill-rule="evenodd" clip-rule="evenodd" d="M1.75 0H6.38138C6.61342 4.95577e-05 6.83594 0.0922693 7 0.256375L10.2436 3.5C10.4077 3.66406 10.5 3.88658 10.5 4.11862V12.25C10.5 12.7141 10.3156 13.1592 9.98744 13.4874C9.65925 13.8156 9.21413 14 8.75 14H1.75C1.28587 14 0.840752 13.8156 0.512563 13.4874C0.184374 13.1592 0 12.7141 0 12.25V1.75C0 1.28587 0.184374 0.840752 0.512563 0.512563C0.840752 0.184374 1.28587 0 1.75 0ZM6.5625 1.3125V3.0625C6.5625 3.29456 6.65469 3.51712 6.81878 3.68122C6.98288 3.84531 7.20544 3.9375 7.4375 3.9375H9.1875L6.5625 1.3125ZM1.89437 11.9595C1.97312 12.117 2.09563 12.2596 2.27763 12.3261C2.45875 12.3918 2.63813 12.3611 2.78513 12.2999C3.06337 12.1861 3.34075 11.9184 3.59538 11.6121C3.88675 11.2612 4.193 10.801 4.48875 10.2909C5.05977 10.1219 5.64444 10.003 6.23612 9.93563C6.49862 10.2708 6.76987 10.5595 7.03237 10.7669C7.27737 10.9594 7.56 11.1195 7.84962 11.1318C8.00736 11.1393 8.16348 11.0971 8.29587 11.011C8.4315 10.9226 8.53213 10.7949 8.60563 10.647C8.68437 10.4886 8.7325 10.3232 8.72637 10.1544C8.72111 9.98782 8.6594 9.828 8.55137 9.70113C8.35362 9.46488 8.02987 9.35112 7.71137 9.29425C7.32498 9.23472 6.93301 9.22004 6.54325 9.2505C6.2143 8.78511 5.92734 8.29142 5.68575 7.77525C5.9045 7.19775 6.06812 6.65175 6.14075 6.2055C6.17225 6.01475 6.18888 5.83275 6.18275 5.66825C6.1816 5.50497 6.14362 5.34406 6.07163 5.1975C6.03011 5.11663 5.97112 5.04601 5.89893 4.99077C5.82674 4.93553 5.74316 4.89705 5.65425 4.87812C5.4775 4.8405 5.2955 4.87813 5.12838 4.9455C4.7985 5.07675 4.62437 5.35675 4.55875 5.66563C4.49487 5.96312 4.52375 6.30963 4.599 6.65963C4.676 7.01487 4.80725 7.40163 4.97525 7.79275C4.7059 8.4608 4.39556 9.11158 4.046 9.74137C3.59515 9.88349 3.1605 10.0727 2.74925 10.3057C2.4255 10.4983 2.13762 10.7257 1.96437 10.9944C1.78062 11.2796 1.72375 11.6191 1.89437 11.9595Z" fill="black"/>
</svg>
