<?xml version="1.0" encoding="UTF-8"?>
<svg id="Layer_2" data-name="Layer 2" xmlns="http://www.w3.org/2000/svg" viewBox="0 0 618.55 640.16">
  <defs>
    <style>
      .cls-1 {
        fill-rule: evenodd;
      }

      .cls-1, .cls-2 {
        fill: #86264f;
      }

      .cls-3 {
        fill: #fff;
      }
    </style>
  </defs>
  <g id="Layer_1-2" data-name="Layer 1">
    <g>
      <path class="cls-3" d="M191.65,459.28c5.95,0,10.78-4.82,10.78-10.77s-4.82-10.77-10.78-10.77-10.77,4.83-10.77,10.77,4.82,10.77,10.77,10.77Z"/>
      <path class="cls-3" d="M135.86,500.29c-15.8,0-28.65,12.81-28.65,28.65s12.85,28.66,28.64,28.66h.02c15.84,0,28.69-12.81,28.69-28.66s-12.84-28.65-28.69-28.65ZM135.84,547.48c-10.21,0-18.51-8.32-18.51-18.54s8.31-18.53,18.53-18.53,18.56,8.31,18.56,18.53-8.33,18.54-18.58,18.54Z"/>
      <path class="cls-3" d="M192.1,485.44h18.42l1.38,10.49c2.58-.65,5.27-1,8.03-1.02l-2.85-21.64c-.29-2.22-2.33-3.78-4.54-3.48-2.22.29-3.78,2.33-3.48,4.54l.36,2.69-14.45.02-11.84-18.55s-2.51-4.17-7.29-4.17c0,0-3.95-.51-6.78,2.69l-22.78,22.83c-1.47,1.6-2.32,3.73-2.32,6.05,0,3.37,1.87,6.33,4.64,7.87l23.23,12.9v24.28c0,3.44,2.77,6.24,6.21,6.24s6.21-2.8,6.21-6.24v-30.32s.82-4.84-4.68-7.48l-13.39-7.05,14.45-14.31,7,10.95c1.23,1.96,2.92,2.74,4.49,2.71h0Z"/>
      <path class="cls-3" d="M220.25,500.57c-15.83,0-28.68,12.81-28.68,28.67s12.85,28.65,28.68,28.65,28.66-12.81,28.66-28.65-12.86-28.67-28.66-28.67ZM220.25,547.76c-10.23,0-18.56-8.31-18.56-18.53s8.33-18.55,18.56-18.55,18.54,8.32,18.54,18.55-8.32,18.53-18.54,18.53Z"/>
      <path class="cls-3" d="M135.87,522.88c-3.35,0-6.07,2.71-6.07,6.07s2.72,6.07,6.07,6.07c3.36,0,6.08-2.71,6.08-6.07s-2.72-6.07-6.08-6.07Z"/>
      <path class="cls-3" d="M220.24,523.16c-3.35,0-6.08,2.71-6.08,6.07s2.72,6.07,6.08,6.07,6.07-2.71,6.07-6.07-2.72-6.07-6.07-6.07Z"/>
    </g>
    <path class="cls-3" d="M501.92,503.27h-6.27l-21.97-75.35c-1.22-4.19-4.46-6.99-8.1-6.99s-6.87,2.8-8.1,6.99l-21.97,75.35h-6.27c-1.67,0-3.03,1.36-3.03,3.03s1.36,3.03,3.03,3.03h72.67c1.67,0,3.03-1.36,3.03-3.03s-1.36-3.03-3.03-3.03ZM457.42,449.8h16.32l4.86,16.68h-26.05l4.86-16.68ZM441.84,503.27l4.58-15.72h38.33l4.58,15.72h-47.5Z"/>
    <path class="cls-3" d="M531.94,213.54h-11.44v-16.25l13.79-18.53c.66-.89.76-2.07.27-3.06-.5-.99-1.51-1.61-2.61-1.61h-11.44v-16.25l13.79-18.53c.66-.89.76-2.07.27-3.06-.5-.99-1.51-1.61-2.61-1.61h-11.44v-4.3c0-1.61-1.31-2.92-2.92-2.92h-47.88c-1.61,0-2.92,1.31-2.92,2.92v4.3h-11.44c-1.1,0-2.11.62-2.61,1.61-.5.99-.39,2.17.27,3.06l13.79,18.53v16.25h-11.44c-1.1,0-2.11.62-2.61,1.61-.5.99-.39,2.17.27,3.06l13.79,18.53v16.25h-11.44c-1.1,0-2.11.62-2.61,1.61-.5.99-.39,2.17.27,3.06l13.79,18.53v20.5c0,1.61,1.31,2.92,2.92,2.92h47.88c1.61,0,2.92-1.31,2.92-2.92v-20.5l13.79-18.53c.66-.89.76-2.07.27-3.06-.5-.99-1.51-1.61-2.61-1.61ZM493.64,249.89c-9.23,0-16.72-7.48-16.72-16.72s7.48-16.72,16.72-16.72,16.72,7.48,16.72,16.72-7.48,16.72-16.72,16.72ZM493.64,210.45c-9.23,0-16.72-7.48-16.72-16.72s7.48-16.72,16.72-16.72,16.72,7.48,16.72,16.72-7.48,16.72-16.72,16.72ZM493.64,171.01c-9.23,0-16.72-7.48-16.72-16.72s7.48-16.72,16.72-16.72,16.72,7.48,16.72,16.72-7.48,16.72-16.72,16.72Z"/>
    <path class="cls-3" d="M211.28,184.24s-.03,0-.05-.01l-31.8-6.98v-8.89c3.83-.53,11.77-2.07,14.8-3.44,8.51-3.85,15.04-9.48,19.41-16.74,2.95-4.91,3.99-9.64,3.18-14.46-.79-4.69-3.01-8.91-6.6-12.54-3.19-3.23-7.02-5.79-11.67-7.82-.21-4.78-1.15-9.56-2.82-14.23-1.7-4.77-4.15-9.2-7.26-13.17-3.25-4.15-7.1-7.62-11.46-10.34-3.42-2.13-6.79-3.69-10.27-4.74-.55-4.27-3.84-7.19-8.35-7.25-1.02-.01-2.04-.01-3.05,0h-1.34c-.41,0-.82,0-1.23.01-.83.01-1.61.02-2.34-.02-2.73-.15-5.18.74-6.9,2.51-1.24,1.27-2.01,2.91-2.24,4.74-2.79.8-5.63,2.04-8.62,3.76-5.39,3.1-10.04,7.24-13.8,12.29-3.4,4.57-5.93,9.68-7.54,15.21-1.07,3.67-1.68,7.42-1.84,11.16-5.36,2.19-9.54,5.06-12.73,8.75-5.06,5.83-6.8,12.32-5.2,19.28,1.02,4.43,3.35,8.53,7.32,12.91,2.97,3.28,6.56,6.15,10.67,8.54,4.37,2.54,13.48,5.14,17.68,6.17.17.04.34.06.5.08v8.23l-31.8,6.99s-.03,0-.05.01c-6.1,1.43-10.36,6.81-10.36,13.08v19.45c0,4.67,3.8,8.47,8.47,8.47h119.17c4.67,0,8.47-3.8,8.47-8.47v-19.45c0-6.26-4.26-11.64-10.36-13.08ZM110.35,143.65c-1.11-6.46,2.44-12.46,7.94-13.41l4.04,23.38c-5.5.95-10.86-3.52-11.98-9.97ZM187.36,130.24c5.5.95,9.05,6.95,7.94,13.41-1.11,6.46-6.48,10.92-11.98,9.97l4.04-23.38ZM144.28,87.16h18.58c0,3.35.09,6.63-.06,9.9-.04.88-.65,1.83-1.24,2.56-1.69,2.14-3.85,3.8-6.24,5.07-1.11.59-2.49.57-3.62-.08-2.19-1.24-4.19-2.75-5.83-4.69-.99-1.16-1.63-2.42-1.61-4.01.04-2.89.01-5.78.01-8.76ZM124.55,136.6c-.22-2.55-.15-5.15-.08-7.9,0-.03,0-.06,0-.09,6.32-2.82,28.94-11.12,56.78-.43.04,1.72.04,4.53-.18,8.54h0c-.45,8.42-3.44,20.09-9.12,27.19-4.61,5.77-10.61,8.98-16.87,9.04h-3.48c-6.29-.06-12.3-3.27-16.91-9.04-5.8-7.25-9.21-16.44-10.14-27.3ZM92.53,207.94v-8.49h47.54l6,8.49h-53.54ZM134.74,180.66v-6.86c4.98,3.95,10.76,6.1,16.83,6.16h3.55c6.25-.06,12.21-2.36,17.3-6.56v7.07l-19.32,24.67-18.36-24.48ZM214.63,207.94h-55.37l7.2-8.49h47.56c.21,0,.42-.02.62-.06v8.55Z"/>
    <g>
      <path class="cls-3" d="M315.61,324.01h-153.61C72.67,324.01,0,251.34,0,162.01S72.67,0,162.01,0s163.82,72.67,163.82,162.01v151.79c0,5.64-4.57,10.22-10.22,10.22ZM163.82,20.43c-79.89,0-143.39,63.51-143.39,141.58s63.51,141.58,141.58,141.58h143.39v-141.58c0-78.06-63.51-141.58-141.58-141.58Z"/>
      <path class="cls-3" d="M184.48,640.16c-79.5,0-142.92-63.41-142.92-141.35s63.42-141.35,141.36-141.35h131.35c6.39,0,11.56,5.17,11.56,11.55v129.8c0,77.94-63.41,141.35-141.35,141.35ZM182.92,380.56c-65.2,0-118.25,53.04-118.25,118.24s53.05,118.24,118.25,118.24,119.8-53.04,119.8-118.24v-118.24h-119.8Z"/>
      <path class="cls-3" d="M485.66,324.01h-122.77c-6.39,0-11.55-5.17-11.55-11.56v-121.32c0-73.27,59.6-132.88,132.87-132.88s134.34,59.61,134.34,132.88-59.62,132.88-132.89,132.88ZM374.44,300.9h111.22c60.53,0,109.78-49.24,109.78-109.77s-49.25-109.77-109.78-109.77-111.22,49.24-111.22,109.77v109.77Z"/>
      <path class="cls-3" d="M458.41,569.36c-59.55,0-107.08-47.53-107.08-105.96v-94.4c0-6.38,5.17-11.55,11.55-11.55h95.52c58.43,0,105.96,47.53,105.96,105.96s-47.53,105.96-105.96,105.96ZM374.44,380.56v82.85c0,45.68,37.16,82.84,82.84,82.84s83.98-37.17,83.98-82.84-37.17-82.85-82.85-82.85h-83.97Z"/>
    </g>
    <circle class="cls-3" cx="325.83" cy="324.01" r="124.45"/>
    <g>
      <g>
        <path class="cls-2" d="M289.64,365.81c-.14,0-.28,0-.41-.01l-23.21-1.64c-3-.22-5.35-2.74-5.35-5.74v-10.17c0-1.7.75-3.31,2.05-4.4,1.3-1.09,3.01-1.56,4.69-1.27l32.41,5.63c2.33.41,4.15,2.17,4.64,4.47.49,2.31-.46,4.65-2.42,5.97l-9.19,6.19c-.95.64-2.07.98-3.21.98ZM289.75,358.34h0,0ZM268.13,356.82l21.04,1.49,5.17-3.47-26.2-4.55v6.54ZM297.88,352.45s0,0,0,0h0s0,0,0,0Z"/>
        <path class="cls-2" d="M365.86,365.81c-1.13,0-2.26-.34-3.21-.98l-9.19-6.18c-1.96-1.32-2.91-3.66-2.42-5.97.49-2.31,2.31-4.06,4.64-4.47l32.41-5.63c1.67-.3,3.38.17,4.69,1.27,1.3,1.1,2.05,2.7,2.05,4.4v10.17c0,3-2.35,5.52-5.34,5.74l-23.23,1.64c-.13.01-.27.02-.41.02ZM366.82,358.63h.04-.04ZM365.74,358.35h0,0ZM361.16,354.83l5.17,3.47,21.04-1.49v-6.54l-26.2,4.55ZM357.62,352.45h0s0,0,0,0Z"/>
        <path class="cls-2" d="M338.18,355.55h-21.65c-2.06,0-3.73-1.67-3.73-3.73s1.67-3.73,3.73-3.73h21.65c2.06,0,3.73,1.67,3.73,3.73s-1.67,3.73-3.73,3.73Z"/>
        <g>
          <path class="cls-2" d="M398.77,383.98h-141.94c-5.42,0-9.84-4.41-9.84-9.84v-23.78c0-5.27,1.96-10.3,5.53-14.18l12.83-13.92,9.35-31.06c1.89-6.27,7.55-10.74,14.09-11.1,9.64-.55,27.53-1.46,39.01-1.46s29.37.92,39.01,1.46c6.54.36,12.2,4.83,14.08,11.1l9.35,31.06,12.83,13.92c3.57,3.88,5.54,8.91,5.54,14.18v23.78c0,5.42-4.41,9.84-9.84,9.84ZM327.8,286.11c-11.3,0-29.03.91-38.59,1.45-3.42.19-6.37,2.52-7.36,5.8l-9.59,31.88c-.16.54-.45,1.04-.83,1.45l-13.41,14.55c-2.29,2.49-3.56,5.73-3.56,9.12v23.78c0,1.31,1.06,2.37,2.37,2.37h141.94c1.31,0,2.37-1.06,2.37-2.37v-23.78c0-3.39-1.27-6.63-3.56-9.12l-13.41-14.55c-.38-.42-.67-.92-.83-1.45l-9.59-31.88c-.99-3.28-3.94-5.61-7.36-5.8-9.56-.54-27.29-1.45-38.59-1.45ZM268.68,324.16h.04-.04Z"/>
          <path class="cls-2" d="M268.68,327.89c-1.78,0-3.36-1.28-3.67-3.09-.36-2.03,1-3.97,3.03-4.32,1.75-.3,43.77-7.44,119.24-.04,2.05.2,3.55,2.03,3.35,4.08-.2,2.05-2.04,3.55-4.08,3.35-74.47-7.31-116.8-.11-117.22-.04-.22.04-.44.05-.65.05Z"/>
          <path class="cls-2" d="M265.63,330.99c-.32,0-.64-.04-.97-.13l-5.4-1.44c-.55-.15-1.14-.17-1.7-.05l-3.9.76c-4.17.81-8.32-1.63-9.63-5.68l-.76-2.38c-.73-2.26-.46-4.74.72-6.79,1.19-2.06,3.2-3.52,5.52-4.02l9-1.94c4.58-.97,9.02,1.8,10.13,6.34l2.2,9c.41,1.67-.38,3.35-1.81,4.15-.61,1.34-1.95,2.19-3.4,2.19ZM260.33,316.58c-.08,0-.16,0-.24.03l-9,1.94c-.34.07-.53.29-.63.46-.1.17-.19.44-.08.77l.76,2.38c.15.46.62.74,1.09.65l3.9-.76c1.66-.32,3.4-.26,5.05.17l1.48.39-1.26-5.17c-.12-.5-.57-.84-1.07-.84Z"/>
          <path class="cls-2" d="M389.87,330.99c-1.45,0-2.79-.85-3.4-2.19-1.44-.8-2.22-2.48-1.81-4.15l2.2-8.99c1.11-4.54,5.57-7.34,10.13-6.34l9,1.94c2.32.5,4.33,1.96,5.52,4.02,1.19,2.06,1.45,4.53.73,6.79l-.77,2.38c-1.31,4.06-5.44,6.51-9.63,5.68l-3.89-.76c-.57-.12-1.15-.09-1.71.06l-5.39,1.44c-.32.09-.65.13-.97.13ZM397.22,321.83c.72,0,1.44.07,2.15.21l3.9.76c.47.09.95-.18,1.09-.65l.77-2.38c.11-.33.01-.6-.08-.77s-.28-.38-.63-.46l-9-1.94c-.61-.13-1.16.23-1.3.82l-1.26,5.17,1.47-.39c.95-.25,1.93-.38,2.91-.38Z"/>
        </g>
        <path class="cls-2" d="M268.94,404h-10.44c-6.34,0-11.5-5.16-11.5-11.51v-24.87c0-2.06,1.67-3.73,3.73-3.73s3.73,1.67,3.73,3.73v24.87c0,2.23,1.81,4.04,4.04,4.04h10.44c2.23,0,4.04-1.81,4.04-4.04v-12.4c0-2.06,1.67-3.73,3.73-3.73s3.73,1.67,3.73,3.73v12.4c0,6.34-5.16,11.51-11.51,11.51Z"/>
        <path class="cls-2" d="M397.1,404h-10.44c-6.34,0-11.51-5.16-11.51-11.51v-11.95c0-2.06,1.67-3.73,3.73-3.73s3.73,1.67,3.73,3.73v11.95c0,2.23,1.81,4.04,4.04,4.04h10.44c2.23,0,4.04-1.81,4.04-4.04v-24.87c0-2.06,1.67-3.73,3.73-3.73s3.73,1.67,3.73,3.73v24.87c0,6.34-5.16,11.51-11.51,11.51Z"/>
      </g>
      <path class="cls-1" d="M326.77,282.24v-32.7c0-.98,1.36-1.78,3.03-1.78s3.03.8,3.03,1.78v32.7c0,.98-1.36,1.78-3.03,1.78s-3.03-.79-3.03-1.78h0Z"/>
      <path class="cls-1" d="M320.9,245.96c0-4.9,3.99-8.89,8.89-8.89s8.89,3.99,8.89,8.89-3.99,8.89-8.89,8.89-8.89-3.99-8.89-8.89Z"/>
    </g>
  </g>
</svg>