<?xml version="1.0" encoding="UTF-8"?>
<svg id="Layer_2" data-name="Layer 2" xmlns="http://www.w3.org/2000/svg" viewBox="0 0 506.56 618.74">
  <defs>
    <style>
      .cls-1 {
        fill: #fff;
      }

      .cls-2 {
        stroke-miterlimit: 10;
      }

      .cls-2, .cls-3 {
        fill: none;
        stroke: #fff;
        stroke-width: 17px;
      }

      .cls-3 {
        stroke-linejoin: round;
      }
    </style>
  </defs>
  <g id="Layer_1-2" data-name="Layer 1">
    <g>
      <path class="cls-3" d="M361.29,380.82c-13.72-40.87-31.44-80.85-92.56-95-23.34-5.39-105.97-6.8-105.97-6.8-84.52,0-154.26,49.82-154.26,136.98,0,28.93,3.03,132.35,14.54,158.23,10.15,22.78,26.47,36.01,49.84,36.01h180.62c31.38,0,51.02-15.31,53.31-43.67,2.55-31.35-16.87-43.27-42.13-44.18l-141.62-12.03v-75.35"/>
      <path class="cls-3" d="M247.28,518.92c16.34-63.53,65.35-109.67,123.25-109.67,64.65,0,118.18,57.46,127.6,132.46"/>
      <path class="cls-3" d="M289.31,525.02c12.21-44.32,43.97-75.92,81.24-75.92,42.88,0,78.48,41.87,85.37,96.8"/>
      <path class="cls-3" d="M56.19,313s126.69,53.6,175.03,173.75"/>
      <path class="cls-3" d="M110.75,285.82c32.95,17.04,109.92,63.67,151.64,145.54"/>
      <path class="cls-2" d="M325.09,124.12c0,63.86-51.76,115.62-115.62,115.62s-115.62-51.76-115.62-115.62S145.61,8.5,209.47,8.5s115.62,51.76,115.62,115.62Z"/>
    </g>
    <path class="cls-1" d="M205.75,40.47c-12.87,1.75-21.18,13.15-21.8,25.65l13.32,85.72c3.69,12.71,21.25,12.74,24.96,0,2.49-26.57,10.62-54.7,12.65-81.06,1.39-18.1-9.89-32.94-29.13-30.31Z"/>
    <path class="cls-1" d="M208.74,167.96c-21.64,1.53-19.68,35.56,3.92,32.43,19.57-2.59,16.44-33.87-3.92-32.43Z"/>
  </g>
</svg>