<?xml version="1.0" encoding="UTF-8"?>
<svg id="Layer_2" data-name="Layer 2" xmlns="http://www.w3.org/2000/svg" viewBox="0 0 523.06 592.29">
  <defs>
    <style>
      .cls-1, .cls-2 {
        fill: #fff;
      }

      .cls-2 {
        fill-rule: evenodd;
      }
    </style>
  </defs>
  <g id="Layer_1-2" data-name="Layer 1">
    <g>
      <path class="cls-1" d="M287.52,295.16h-44.37c-12.23,0-22.19-9.95-22.19-22.19s9.95-22.19,22.19-22.19h44.37c12.23,0,22.19,9.95,22.19,22.19s-9.95,22.19-22.19,22.19ZM243.15,265.58c-4.08,0-7.4,3.32-7.4,7.4s3.31,7.4,7.4,7.4h44.37c4.08,0,7.4-3.32,7.4-7.4s-3.31-7.4-7.4-7.4h-44.37Z"/>
      <path class="cls-1" d="M265.34,265.58c-4.09,0-7.4-3.31-7.4-7.4v-44.19c0-4.08,3.31-7.4,7.4-7.4s7.4,3.31,7.4,7.4v44.19c0,4.08-3.31,7.4-7.4,7.4Z"/>
      <path class="cls-1" d="M413.25,349.01c-4.09,0-7.4-3.31-7.4-7.4v-46.46c0-8.16-6.64-14.79-14.79-14.79h-88.75c-4.09,0-7.4-3.31-7.4-7.4s3.31-7.4,7.4-7.4h88.75c16.31,0,29.58,13.27,29.58,29.58v46.46c0,4.08-3.31,7.4-7.4,7.4Z"/>
      <path class="cls-1" d="M117.24,349.01c-4.09,0-7.4-3.31-7.4-7.4v-46.46c0-16.31,13.27-29.58,29.58-29.58h88.75c4.09,0,7.4,3.31,7.4,7.4s-3.31,7.4-7.4,7.4h-88.75c-8.15,0-14.79,6.63-14.79,14.79v46.46c0,4.08-3.31,7.4-7.4,7.4Z"/>
      <path class="cls-1" d="M357.65,218.06h-171.63c-43.75,0-79.34-35.67-79.34-79.52s34.6-78.52,77.5-79.5C199.44,23.51,234.68,0,273.5,0c49.63,0,90.92,37.4,96.55,86.21,31.16,5.84,53.95,32.91,53.95,65.34,0,36.67-29.77,66.51-66.35,66.51ZM186.01,73.81c-35.59,0-64.55,29.04-64.55,64.73s28.96,64.73,64.55,64.73h171.63c28.43,0,51.56-23.2,51.56-51.72,0-26.86-20.08-48.99-46.72-51.47-3.65-.34-6.51-3.31-6.7-6.97-2.33-43.92-38.48-78.31-82.29-78.31-34.43,0-65.53,21.83-77.41,54.32-1.1,3.02-4.05,4.95-7.25,4.85l-1.41-.08c-.47-.03-.94-.07-1.42-.07Z"/>
      <g>
        <path class="cls-1" d="M241.4,169.89c-1.67,0-3.34-.56-4.72-1.71-11.63-9.69-18.31-23.92-18.31-39.04,0-28.01,22.78-50.79,50.79-50.79,4.09,0,7.4,3.31,7.4,7.4s-3.31,7.4-7.4,7.4c-19.85,0-36,16.15-36,36,0,10.72,4.73,20.81,12.98,27.68,3.14,2.61,3.57,7.28.95,10.42-1.47,1.75-3.57,2.66-5.69,2.66Z"/>
        <path class="cls-1" d="M262.06,103.2c-1.48,0-2.97-.44-4.27-1.36-3.34-2.36-4.12-6.98-1.75-10.31l3.43-4.85-4.02-3.83c-2.96-2.82-3.07-7.5-.25-10.46,2.82-2.95,7.5-3.05,10.45-.25l8.65,8.24c2.66,2.53,3.05,6.63.93,9.63l-7.14,10.07c-1.44,2.03-3.72,3.12-6.04,3.12Z"/>
      </g>
      <g>
        <path class="cls-1" d="M269.16,179.93c-4.09,0-7.4-3.31-7.4-7.4s3.31-7.4,7.4-7.4c19.85,0,36-16.15,36-36,0-11.41-5.24-21.9-14.38-28.78-3.26-2.46-3.91-7.09-1.46-10.35s7.08-3.93,10.36-1.46c12.88,9.7,20.27,24.49,20.27,40.6,0,28.01-22.78,50.79-50.79,50.79Z"/>
        <path class="cls-1" d="M277.76,188.17c-1.83,0-3.67-.68-5.1-2.04l-8.65-8.24c-2.66-2.53-3.05-6.63-.94-9.63l7.13-10.07c2.36-3.33,6.97-4.13,10.31-1.76,3.33,2.36,4.12,6.97,1.76,10.31l-3.44,4.85,4.02,3.83c2.96,2.82,3.07,7.5.25,10.46-1.45,1.52-3.4,2.29-5.35,2.29Z"/>
      </g>
    </g>
    <g>
      <g>
        <path class="cls-1" d="M358.09,541.07c-.19,0-.37,0-.55-.02l-31.13-2.2c-4.03-.29-7.17-3.67-7.17-7.7v-13.65c0-2.28,1-4.43,2.75-5.91,1.75-1.46,4.04-2.09,6.29-1.7l43.47,7.55c3.13.55,5.57,2.9,6.23,6,.66,3.1-.62,6.24-3.24,8l-12.33,8.3c-1.27.86-2.78,1.31-4.31,1.31ZM358.25,531.06h0,0ZM329.25,529.01l28.22,1.99,6.93-4.66-35.15-6.11v8.77ZM369.14,523.15s0,0-.01,0h0s0,0,0,0Z"/>
        <path class="cls-1" d="M460.32,541.07c-1.52,0-3.03-.46-4.31-1.32l-12.33-8.29c-2.63-1.77-3.9-4.91-3.24-8,.66-3.1,3.1-5.45,6.22-6l43.48-7.55c2.24-.4,4.54.23,6.29,1.7,1.75,1.47,2.75,3.62,2.75,5.91v13.65c0,4.02-3.15,7.41-7.16,7.7l-31.15,2.2c-.18.01-.36.02-.55.02ZM461.61,531.44h.05-.05ZM460.16,531.06h0,0ZM454.02,526.34l6.93,4.66,28.22-1.99v-8.77l-35.15,6.11ZM449.27,523.15h.01s0,0-.01,0Z"/>
        <path class="cls-1" d="M423.2,527.31h-29.03c-2.77,0-5.01-2.24-5.01-5.01s2.24-5.01,5.01-5.01h29.03c2.77,0,5.01,2.24,5.01,5.01s-2.24,5.01-5.01,5.01Z"/>
        <g>
          <path class="cls-1" d="M504.46,565.44h-190.37c-7.27,0-13.19-5.92-13.19-13.19v-31.89c0-7.07,2.64-13.82,7.42-19.02l17.21-18.67,12.53-41.65c2.53-8.42,10.12-14.4,18.89-14.89,12.93-.73,36.92-1.96,52.32-1.96s39.4,1.23,52.33,1.96c8.77.49,16.36,6.47,18.89,14.89l12.53,41.65,17.2,18.67c4.79,5.2,7.42,11.95,7.42,19.02v31.89c0,7.28-5.92,13.19-13.19,13.19ZM409.27,434.17c-15.16,0-38.93,1.22-51.76,1.94-4.58.26-8.55,3.38-9.87,7.78l-12.87,42.76c-.22.73-.6,1.39-1.11,1.95l-17.98,19.52c-3.08,3.34-4.77,7.69-4.77,12.23v31.89c0,1.75,1.43,3.18,3.18,3.18h190.37c1.75,0,3.18-1.43,3.18-3.18v-31.89c0-4.54-1.7-8.89-4.77-12.23l-17.98-19.52c-.51-.56-.89-1.23-1.11-1.95l-12.87-42.76c-1.32-4.4-5.29-7.52-9.87-7.78-12.83-.72-36.6-1.94-51.76-1.94ZM329.98,485.21h.05-.05Z"/>
          <path class="cls-1" d="M329.98,490.21c-2.39,0-4.5-1.71-4.93-4.14-.48-2.72,1.34-5.32,4.07-5.8,2.35-.41,58.7-9.98,159.93-.05,2.75.27,4.76,2.72,4.49,5.47-.27,2.75-2.73,4.76-5.47,4.49-99.89-9.8-156.66-.15-157.22-.05-.29.05-.58.07-.87.07Z"/>
          <path class="cls-1" d="M325.89,494.37c-.43,0-.86-.05-1.3-.17l-7.25-1.94c-.74-.2-1.53-.22-2.28-.07l-5.23,1.02c-5.6,1.09-11.16-2.18-12.91-7.62l-1.02-3.19c-.98-3.03-.62-6.35.97-9.11,1.59-2.76,4.29-4.72,7.4-5.39l12.08-2.6c6.14-1.3,12.09,2.42,13.58,8.5l2.95,12.07c.55,2.24-.51,4.5-2.43,5.57-.81,1.79-2.61,2.94-4.56,2.94ZM318.78,475.05c-.1,0-.21,0-.32.03l-12.08,2.6c-.46.1-.71.39-.84.61-.13.22-.25.59-.11,1.03l1.02,3.19c.2.62.83.99,1.46.87l5.23-1.02c2.23-.43,4.57-.35,6.77.22l1.98.53-1.69-6.94c-.17-.67-.77-1.13-1.43-1.13Z"/>
          <path class="cls-1" d="M492.53,494.37c-1.95,0-3.75-1.14-4.56-2.94-1.93-1.07-2.98-3.33-2.43-5.57l2.95-12.06c1.49-6.09,7.47-9.85,13.58-8.51l12.08,2.6c3.11.67,5.81,2.64,7.4,5.39,1.59,2.76,1.95,6.08.97,9.11l-1.03,3.19c-1.75,5.44-7.3,8.73-12.92,7.62l-5.22-1.02c-.76-.16-1.55-.12-2.29.08l-7.23,1.93c-.43.12-.87.17-1.3.17ZM502.38,482.08c.97,0,1.94.09,2.88.28l5.22,1.02c.63.12,1.27-.24,1.47-.87l1.03-3.19c.14-.44.02-.81-.11-1.03s-.38-.51-.84-.61l-12.08-2.6c-.82-.18-1.55.31-1.75,1.1l-1.69,6.93,1.97-.52c1.27-.34,2.59-.51,3.9-.51Z"/>
        </g>
        <path class="cls-1" d="M330.33,592.29h-14.01c-8.51,0-15.43-6.92-15.43-15.43v-33.36c0-2.77,2.24-5.01,5.01-5.01s5.01,2.24,5.01,5.01v33.36c0,2.99,2.43,5.42,5.42,5.42h14.01c2.99,0,5.42-2.43,5.42-5.42v-16.63c0-2.77,2.24-5.01,5.01-5.01s5.01,2.24,5.01,5.01v16.63c0,8.51-6.92,15.43-15.43,15.43Z"/>
        <path class="cls-1" d="M502.22,592.29h-14c-8.51,0-15.43-6.92-15.43-15.43v-16.03c0-2.77,2.24-5.01,5.01-5.01s5.01,2.24,5.01,5.01v16.03c0,2.99,2.43,5.42,5.42,5.42h14c2.99,0,5.42-2.43,5.42-5.42v-33.36c0-2.77,2.24-5.01,5.01-5.01s5.01,2.24,5.01,5.01v33.36c0,8.51-6.92,15.43-15.43,15.43Z"/>
      </g>
      <path class="cls-2" d="M407.89,428.98v-43.86c0-1.31,1.82-2.38,4.06-2.38s4.06,1.07,4.06,2.38v43.86c0,1.31-1.82,2.38-4.06,2.38s-4.06-1.07-4.06-2.38h0Z"/>
      <path class="cls-2" d="M400.03,380.33c0-6.58,5.35-11.93,11.93-11.93s11.93,5.35,11.93,11.93-5.35,11.93-11.93,11.93-11.93-5.35-11.93-11.93Z"/>
    </g>
    <g>
      <g>
        <path class="cls-1" d="M62.73,541.07c-.19,0-.37,0-.55-.02l-31.13-2.2c-4.03-.29-7.17-3.67-7.17-7.7v-13.65c0-2.28,1-4.43,2.75-5.91,1.75-1.46,4.04-2.09,6.29-1.7l43.47,7.55c3.13.55,5.57,2.9,6.23,6,.66,3.1-.62,6.24-3.24,8l-12.33,8.3c-1.27.86-2.78,1.31-4.31,1.31ZM62.89,531.06h0,0ZM33.89,529.01l28.22,1.99,6.93-4.66-35.15-6.11v8.77ZM73.78,523.15s0,0-.01,0h0s0,0,0,0Z"/>
        <path class="cls-1" d="M164.96,541.07c-1.52,0-3.03-.46-4.31-1.32l-12.33-8.29c-2.63-1.77-3.9-4.91-3.24-8,.66-3.1,3.1-5.45,6.22-6l43.48-7.55c2.24-.4,4.54.23,6.29,1.7,1.75,1.47,2.75,3.62,2.75,5.91v13.65c0,4.02-3.15,7.41-7.16,7.7l-31.15,2.2c-.18.01-.36.02-.55.02ZM166.24,531.44h.05-.05ZM164.8,531.06h0,0ZM158.66,526.34l6.93,4.66,28.22-1.99v-8.77l-35.15,6.11ZM153.91,523.15h.01s0,0-.01,0Z"/>
        <path class="cls-1" d="M127.84,527.31h-29.03c-2.77,0-5.01-2.24-5.01-5.01s2.24-5.01,5.01-5.01h29.03c2.77,0,5.01,2.24,5.01,5.01s-2.24,5.01-5.01,5.01Z"/>
        <g>
          <path class="cls-1" d="M209.1,565.44H18.73c-7.27,0-13.19-5.92-13.19-13.19v-31.89c0-7.07,2.64-13.82,7.42-19.02l17.21-18.67,12.53-41.65c2.53-8.42,10.12-14.4,18.89-14.89,12.93-.73,36.92-1.96,52.32-1.96s39.4,1.23,52.33,1.96c8.77.49,16.36,6.47,18.89,14.89l12.53,41.65,17.2,18.67c4.79,5.2,7.42,11.95,7.42,19.02v31.89c0,7.28-5.92,13.19-13.19,13.19ZM113.91,434.17c-15.16,0-38.93,1.22-51.76,1.94-4.58.26-8.55,3.38-9.87,7.78l-12.87,42.76c-.22.73-.6,1.39-1.11,1.95l-17.98,19.52c-3.08,3.34-4.77,7.69-4.77,12.23v31.89c0,1.75,1.43,3.18,3.18,3.18h190.37c1.75,0,3.18-1.43,3.18-3.18v-31.89c0-4.54-1.7-8.89-4.77-12.23l-17.98-19.52c-.51-.56-.89-1.23-1.11-1.95l-12.87-42.76c-1.32-4.4-5.29-7.52-9.87-7.78-12.83-.72-36.6-1.94-51.76-1.94ZM34.62,485.21h.05-.05Z"/>
          <path class="cls-1" d="M34.62,490.21c-2.39,0-4.5-1.71-4.93-4.14-.48-2.72,1.34-5.32,4.07-5.8,2.35-.41,58.7-9.98,159.93-.05,2.75.27,4.76,2.72,4.49,5.47-.27,2.75-2.73,4.76-5.47,4.49-99.89-9.8-156.66-.15-157.22-.05-.29.05-.58.07-.87.07Z"/>
          <path class="cls-1" d="M30.53,494.37c-.43,0-.86-.05-1.3-.17l-7.25-1.94c-.74-.2-1.53-.22-2.28-.07l-5.23,1.02c-5.6,1.09-11.16-2.18-12.91-7.62l-1.02-3.19c-.98-3.03-.62-6.35.97-9.11,1.59-2.76,4.29-4.72,7.4-5.39l12.08-2.6c6.14-1.3,12.09,2.42,13.58,8.5l2.95,12.07c.55,2.24-.51,4.5-2.43,5.57-.81,1.79-2.61,2.94-4.56,2.94ZM23.42,475.05c-.1,0-.21,0-.32.03l-12.08,2.6c-.46.1-.71.39-.84.61-.13.22-.25.59-.11,1.03l1.02,3.19c.2.62.83.99,1.46.87l5.23-1.02c2.23-.43,4.57-.35,6.77.22l1.98.53-1.69-6.94c-.17-.67-.77-1.13-1.43-1.13Z"/>
          <path class="cls-1" d="M197.17,494.37c-1.95,0-3.75-1.14-4.56-2.94-1.93-1.07-2.98-3.33-2.43-5.57l2.95-12.06c1.49-6.09,7.47-9.85,13.58-8.51l12.08,2.6c3.11.67,5.81,2.64,7.4,5.39,1.59,2.76,1.95,6.08.97,9.11l-1.03,3.19c-1.75,5.44-7.3,8.73-12.92,7.62l-5.22-1.02c-.76-.16-1.55-.12-2.29.08l-7.23,1.93c-.43.12-.87.17-1.3.17ZM207.02,482.08c.97,0,1.94.09,2.88.28l5.22,1.02c.63.12,1.27-.24,1.47-.87l1.03-3.19c.14-.44.02-.81-.11-1.03s-.38-.51-.84-.61l-12.08-2.6c-.82-.18-1.55.31-1.75,1.1l-1.69,6.93,1.97-.52c1.27-.34,2.59-.51,3.9-.51Z"/>
        </g>
        <path class="cls-1" d="M34.97,592.29h-14.01c-8.51,0-15.43-6.92-15.43-15.43v-33.36c0-2.77,2.24-5.01,5.01-5.01s5.01,2.24,5.01,5.01v33.36c0,2.99,2.43,5.42,5.42,5.42h14.01c2.99,0,5.42-2.43,5.42-5.42v-16.63c0-2.77,2.24-5.01,5.01-5.01s5.01,2.24,5.01,5.01v16.63c0,8.51-6.92,15.43-15.43,15.43Z"/>
        <path class="cls-1" d="M206.86,592.29h-14c-8.51,0-15.43-6.92-15.43-15.43v-16.03c0-2.77,2.24-5.01,5.01-5.01s5.01,2.24,5.01,5.01v16.03c0,2.99,2.43,5.42,5.42,5.42h14c2.99,0,5.42-2.43,5.42-5.42v-33.36c0-2.77,2.24-5.01,5.01-5.01s5.01,2.24,5.01,5.01v33.36c0,8.51-6.92,15.43-15.43,15.43Z"/>
      </g>
      <path class="cls-2" d="M112.53,428.98v-43.86c0-1.31,1.82-2.38,4.06-2.38s4.06,1.07,4.06,2.38v43.86c0,1.31-1.82,2.38-4.06,2.38s-4.06-1.07-4.06-2.38h0Z"/>
      <path class="cls-2" d="M104.67,380.33c0-6.58,5.35-11.93,11.93-11.93s11.93,5.35,11.93,11.93-5.35,11.93-11.93,11.93-11.93-5.35-11.93-11.93Z"/>
    </g>
    <g>
      <path class="cls-1" d="M378.48,348.61c.07,0,.14.02.21.05,1.27.73,2.5,1.89,2.2,3.5-.27,1.47-4.27,5.54-5.43,7.3-7.96,11.99-8.57,27.86-1.38,40.37,1.03,1.79,6.53,8.2,6.68,8.94.41,2.07-.73,4.18-3.02,4.07-2.42-.12-7.52-7.51-8.78-9.7-6.98-12.16-7.97-26.66-2.52-39.62,2.32-5.52,5.96-11.07,10.59-14.82.07-.06.16-.09.26-.09h1.2Z"/>
      <path class="cls-1" d="M392.14,366.17c2.04-1.63,5.23-.42,5.33,2.29.05,1.57-1.37,2.17-2.1,3.3-3.5,5.4-4.33,11.32-.73,16.96,1.22,1.91,4.42,3.74,1.97,6.45-3.85,4.26-8.57-5.55-9.38-8.48-1.38-4.96-1.16-10.1,1.01-14.81.5-1.1,3.09-5.06,3.91-5.71Z"/>
      <path class="cls-1" d="M388.11,357.91c-3.29-3.3-8.02,4.12-9.4,6.56-5.7,10.03-5.84,22.53-.09,32.57,1.49,2.6,6.31,10.47,9.6,6.4,2.41-2.98-2.32-6.14-3.94-8.8-5.18-8.5-5.04-19.56.29-27.94,1.49-2.34,6.3-6.03,3.54-8.79Z"/>
    </g>
    <g>
      <path class="cls-1" d="M445.58,348.61c-.07,0-.14.02-.21.05-1.27.73-2.5,1.89-2.2,3.5.27,1.47,4.27,5.54,5.43,7.3,7.96,11.99,8.57,27.86,1.38,40.37-1.03,1.79-6.53,8.2-6.68,8.94-.41,2.07.73,4.18,3.02,4.07,2.42-.12,7.52-7.51,8.78-9.7,6.98-12.16,7.97-26.66,2.52-39.62-2.32-5.52-5.96-11.07-10.59-14.82-.07-.06-.16-.09-.26-.09h-1.2Z"/>
      <path class="cls-1" d="M431.93,366.17c-2.04-1.63-5.23-.42-5.33,2.29-.05,1.57,1.37,2.17,2.1,3.3,3.5,5.4,4.33,11.32.73,16.96-1.22,1.91-4.42,3.74-1.97,6.45,3.85,4.26,8.57-5.55,9.38-8.48,1.38-4.96,1.16-10.1-1.01-14.81-.5-1.1-3.09-5.06-3.91-5.71Z"/>
      <path class="cls-1" d="M435.95,357.91c3.29-3.3,8.02,4.12,9.4,6.56,5.7,10.03,5.84,22.53.09,32.57-1.49,2.6-6.31,10.47-9.6,6.4-2.41-2.98,2.32-6.14,3.94-8.8,5.18-8.5,5.04-19.56-.29-27.94-1.49-2.34-6.3-6.03-3.54-8.79Z"/>
    </g>
    <g>
      <path class="cls-1" d="M83.05,348.2c.07,0,.14.02.21.05,1.27.73,2.5,1.89,2.2,3.5-.27,1.47-4.27,5.54-5.43,7.3-7.96,11.99-8.57,27.86-1.38,40.37,1.03,1.79,6.53,8.2,6.68,8.94.41,2.07-.73,4.18-3.02,4.07-2.42-.12-7.52-7.51-8.78-9.7-6.98-12.16-7.97-26.66-2.52-39.62,2.32-5.52,5.96-11.07,10.59-14.82.07-.06.16-.09.26-.09h1.2Z"/>
      <path class="cls-1" d="M96.7,365.76c2.04-1.63,5.23-.42,5.33,2.29.05,1.57-1.37,2.17-2.1,3.3-3.5,5.4-4.33,11.32-.73,16.96,1.22,1.91,4.42,3.74,1.97,6.45-3.85,4.26-8.57-5.55-9.38-8.48-1.38-4.96-1.16-10.1,1.01-14.81.5-1.1,3.09-5.06,3.91-5.71Z"/>
      <path class="cls-1" d="M92.68,357.5c-3.29-3.3-8.02,4.12-9.4,6.56-5.7,10.03-5.84,22.53-.09,32.57,1.49,2.6,6.31,10.47,9.6,6.4,2.41-2.98-2.32-6.14-3.94-8.8-5.18-8.5-5.04-19.56.29-27.94,1.49-2.34,6.3-6.03,3.54-8.79Z"/>
    </g>
    <g>
      <path class="cls-1" d="M150.15,348.2c-.07,0-.14.02-.21.05-1.27.73-2.5,1.89-2.2,3.5.27,1.47,4.27,5.54,5.43,7.3,7.96,11.99,8.57,27.86,1.38,40.37-1.03,1.79-6.53,8.2-6.68,8.94-.41,2.07.73,4.18,3.02,4.07,2.42-.12,7.52-7.51,8.78-9.7,6.98-12.16,7.97-26.66,2.52-39.62-2.32-5.52-5.96-11.07-10.59-14.82-.07-.06-.16-.09-.26-.09h-1.2Z"/>
      <path class="cls-1" d="M136.49,365.76c-2.04-1.63-5.23-.42-5.33,2.29-.05,1.57,1.37,2.17,2.1,3.3,3.5,5.4,4.33,11.32.73,16.96-1.22,1.91-4.42,3.74-1.97,6.45,3.85,4.26,8.57-5.55,9.38-8.48,1.38-4.96,1.16-10.1-1.01-14.81-.5-1.1-3.09-5.06-3.91-5.71Z"/>
      <path class="cls-1" d="M140.52,357.5c3.29-3.3,8.02,4.12,9.4,6.56,5.7,10.03,5.84,22.53.09,32.57-1.49,2.6-6.31,10.47-9.6,6.4-2.41-2.98,2.32-6.14,3.94-8.8,5.18-8.5,5.04-19.56-.29-27.94-1.49-2.34-6.3-6.03-3.54-8.79Z"/>
    </g>
  </g>
</svg>