<?xml version="1.0" encoding="UTF-8"?>
<svg id="Layer_2" data-name="Layer 2" xmlns="http://www.w3.org/2000/svg" viewBox="0 0 512.77 535.4">
  <defs>
    <style>
      .cls-1, .cls-2 {
        fill: #fff;
      }

      .cls-2 {
        fill-rule: evenodd;
      }
    </style>
  </defs>
  <g id="Layer_1-2" data-name="Layer 1">
    <path class="cls-2" d="M490.04,358.17H22.72c-12.53,0-22.72-10.2-22.72-22.72V22.72C0,10.2,10.19,0,22.72,0h467.32c12.53,0,22.72,10.19,22.72,22.72v312.72c0,12.53-10.2,22.72-22.72,22.72h0ZM12.55,287.8h182.33l8.69,22.49c2.21,5.57,6.82,17.19,19.07,17.19h67.16c12.27,0,16.89-11.37,19.37-17.48l8.69-22.21h182.36V22.72c0-5.61-4.56-10.17-10.17-10.17H22.72c-5.61,0-10.18,4.56-10.18,10.17v265.08h0ZM208.42,287.8l6.8,17.86c3.08,7.76,5.05,9.27,7.4,9.27h67.16c2.86,0,4.82-2.43,7.75-9.65l6.7-17.48h-95.82Z"/>
    <path class="cls-2" d="M320.12,405.54h-127.6c-12.87,0-23.34-10.47-23.34-23.33v-11.49h174.4v11.38c0,12.93-10.52,23.45-23.46,23.45Z"/>
    <path class="cls-2" d="M307.59,476.32h-102.42c-3.46,0-6.27-2.81-6.27-6.27v-51.96h114.96v51.96c0,3.46-2.81,6.27-6.27,6.27Z"/>
    <path class="cls-2" d="M365.08,535.4h-217.41c-3.46,0-6.27-2.82-6.27-6.28v-37.81c0-15.19,12.36-27.55,27.55-27.55h174.71c15.27,0,27.7,12.43,27.7,27.7v37.65c0,3.46-2.81,6.28-6.28,6.28Z"/>
    <path class="cls-2" d="M464.54,66.52h-110.33c-3.46,0-6.27-2.81-6.27-6.27s2.81-6.27,6.27-6.27h110.33c3.46,0,6.27,2.81,6.27,6.27s-2.81,6.27-6.27,6.27h0ZM317.78,66.52h-20.68c-3.46,0-6.28-2.81-6.28-6.27s2.82-6.27,6.28-6.27h20.68c3.46,0,6.27,2.81,6.27,6.27s-2.81,6.27-6.27,6.27Z"/>
    <path class="cls-2" d="M464.54,111.48h-22.42c-3.46,0-6.27-2.81-6.27-6.27s2.81-6.27,6.27-6.27h22.42c3.46,0,6.27,2.81,6.27,6.27s-2.81,6.27-6.27,6.27h0ZM405.67,111.48h-108.58c-3.46,0-6.28-2.81-6.28-6.27s2.82-6.27,6.28-6.27h108.58c3.46,0,6.27,2.81,6.27,6.27s-2.81,6.27-6.27,6.27Z"/>
    <path class="cls-2" d="M464.54,156.45h-81.24c-3.46,0-6.27-2.81-6.27-6.27s2.81-6.27,6.27-6.27h81.24c3.46,0,6.27,2.81,6.27,6.27s-2.81,6.27-6.27,6.27h0ZM346.85,156.45h-49.76c-3.46,0-6.28-2.81-6.28-6.27s2.82-6.27,6.28-6.27h49.76c3.46,0,6.28,2.81,6.28,6.27s-2.81,6.27-6.28,6.27Z"/>
    <path class="cls-2" d="M464.54,201.42h-28.14c-3.46,0-6.27-2.81-6.27-6.27s2.81-6.27,6.27-6.27h28.14c3.46,0,6.27,2.81,6.27,6.27s-2.81,6.27-6.27,6.27h0ZM399.96,201.42h-102.86c-3.46,0-6.28-2.81-6.28-6.27s2.82-6.27,6.28-6.27h102.86c3.46,0,6.27,2.81,6.27,6.27s-2.81,6.27-6.27,6.27Z"/>
    <path class="cls-2" d="M464.54,246.38h-115.56c-3.46,0-6.27-2.81-6.27-6.28s2.81-6.27,6.27-6.27h115.56c3.46,0,6.27,2.81,6.27,6.27s-2.81,6.28-6.27,6.28h0ZM312.54,246.38h-15.45c-3.46,0-6.28-2.81-6.28-6.28s2.82-6.27,6.28-6.27h15.45c3.46,0,6.28,2.81,6.28,6.27s-2.81,6.28-6.28,6.28Z"/>
    <path class="cls-2" d="M335.99,84.95c-13.51,0-24.49-10.99-24.49-24.49s10.99-24.49,24.49-24.49,24.49,10.99,24.49,24.49-10.99,24.49-24.49,24.49Z"/>
    <path class="cls-2" d="M423.9,129.7c-13.51,0-24.5-10.99-24.5-24.49s10.99-24.5,24.5-24.5,24.49,10.99,24.49,24.5-10.98,24.49-24.49,24.49Z"/>
    <path class="cls-2" d="M365.08,174.67c-13.51,0-24.5-10.99-24.5-24.49s10.99-24.49,24.5-24.49,24.49,10.99,24.49,24.49-10.98,24.49-24.49,24.49Z"/>
    <path class="cls-2" d="M418.18,219.63c-13.51,0-24.49-10.99-24.49-24.5s10.99-24.49,24.49-24.49,24.49,10.99,24.49,24.49-10.99,24.5-24.49,24.5Z"/>
    <path class="cls-2" d="M330.76,264.6c-13.51,0-24.49-10.99-24.49-24.5s10.99-24.49,24.49-24.49,24.49,10.99,24.49,24.49-10.99,24.5-24.49,24.5Z"/>
    <path class="cls-2" d="M221.72,255.93H55.49c-3.46,0-6.27-2.81-6.27-6.27s2.81-6.27,6.27-6.27h166.24c3.46,0,6.27,2.81,6.27,6.27s-2.81,6.27-6.28,6.27Z"/>
    <path class="cls-2" d="M221.72,266.73c-3.46,0-6.27-2.81-6.27-6.27v-21.59c0-3.46,2.81-6.27,6.27-6.27s6.27,2.81,6.27,6.27v21.59c0,3.46-2.81,6.27-6.27,6.27Z"/>
    <path class="cls-2" d="M55.49,266.73c-3.46,0-6.27-2.81-6.27-6.27v-21.59c0-3.46,2.81-6.27,6.27-6.27s6.27,2.81,6.27,6.27v21.59c0,3.46-2.81,6.27-6.27,6.27Z"/>
    <path class="cls-2" d="M247.33,228.54c-3.46,0-6.27-2.81-6.27-6.27V56.02c0-3.46,2.81-6.27,6.27-6.27s6.27,2.81,6.27,6.27v166.24c0,3.47-2.8,6.27-6.27,6.27Z"/>
    <path class="cls-2" d="M258.13,228.54h-21.6c-3.46,0-6.27-2.81-6.27-6.27s2.81-6.27,6.27-6.27h21.6c3.46,0,6.28,2.81,6.28,6.27s-2.81,6.27-6.28,6.27Z"/>
    <path class="cls-2" d="M258.13,62.3h-21.6c-3.46,0-6.27-2.81-6.27-6.27s2.81-6.27,6.27-6.27h21.6c3.46,0,6.28,2.81,6.28,6.27s-2.81,6.27-6.28,6.27Z"/>
    <polygon class="cls-2" points="90.04 177.58 55 177.58 90.04 212.62 90.04 177.58"/>
    <polygon class="cls-2" points="44.8 163.15 90.04 163.15 90.04 113.67 44.8 68.42 44.8 163.15"/>
    <polygon class="cls-2" points="104.48 177.58 104.48 222.83 199.21 222.83 153.95 177.58 104.48 177.58"/>
    <polygon class="cls-2" points="164.16 167.38 209.41 212.63 209.41 117.9 164.16 117.9 164.16 167.38"/>
    <polygon class="cls-2" points="100.25 103.47 149.72 103.47 149.72 58.22 55 58.22 100.25 103.47"/>
    <rect class="cls-1" x="104.48" y="117.9" width="45.25" height="45.25"/>
    <polygon class="cls-2" points="164.16 103.47 199.21 103.47 164.16 68.42 164.16 103.47"/>
  </g>
</svg>