<svg width="302" height="132" viewBox="0 0 302 132" fill="none" xmlns="http://www.w3.org/2000/svg">
<path d="M75.3281 37.4839L51.9131 95.9423L28.5005 37.4839H0L37.6531 131.496H65.8817L103.502 37.4839H75.3281Z" fill="#71C5E8"/>
<path d="M133.064 106.128C130.151 106.128 127.372 105.558 124.829 104.528C116.786 101.267 111.104 93.3781 111.104 84.1682C111.104 72.0479 120.943 62.211 133.064 62.211C141.191 62.211 148.292 66.6353 152.09 73.2052H133.25C130.192 73.2052 127.26 74.4192 125.097 76.5828C122.936 78.7438 121.721 81.6755 121.721 84.7334C121.721 87.7916 122.936 90.7234 125.097 92.8843C127.26 95.0479 130.192 96.2619 133.25 96.2619H160.524C162.762 96.2619 164.772 94.9 165.603 92.8245C168.172 86.4057 173.623 72.7802 175.71 67.5682C176.26 66.1917 176.203 64.6438 175.55 63.313C167.831 47.6406 151.7 36.8447 133.064 36.8447C125.023 36.8447 117.449 38.8577 110.815 42.4052C109.437 43.1395 108.361 44.3395 107.781 45.7922C104.749 53.3635 93.5301 81.3854 88.8332 93.1214C87.3296 96.8766 87.4739 99.0594 89.4583 103.31C97.0083 119.485 114.1 131.716 133.064 131.494C139.976 131.413 144.78 131.292 150.252 131.189L160.295 106.092L133.064 106.128Z" fill="#71C5E8"/>
<path d="M239.147 0.000115342H227.924C217.488 0.000115342 208.101 6.35225 204.222 16.0392C190.185 51.0929 158.013 131.42 158.013 131.42L157.983 131.496H169.206C179.642 131.496 189.026 125.144 192.907 115.457C206.952 80.3896 239.147 0.000115342 239.147 0.000115342Z" fill="#71C5E8"/>
<path fill-rule="evenodd" clip-rule="evenodd" d="M253.75 104.072C242.74 104.072 233.798 95.1287 233.798 84.1147C233.798 73.1 242.74 64.1595 253.75 64.1595C266.892 64.1595 273.711 73.1 273.711 84.1147C273.711 95.1287 264.759 104.072 253.75 104.072ZM227.915 46.8126C228.715 44.8267 230.374 43.0949 232.636 41.9017C237.67 39.2481 245.664 36.7339 253.75 36.7339C279.902 36.7339 301.13 57.9606 301.13 84.1126C301.13 110.266 279.902 131.497 253.75 131.497C234.711 131.497 216.756 117.652 209.223 101.444C208.118 98.8563 208.027 96.4861 209.182 93.6043C213.876 81.8934 227.114 48.7986 227.915 46.8126Z" fill="#71C5E8"/>
</svg>
