<svg xmlns="http://www.w3.org/2000/svg" viewBox="0 0 1600 980" role="img" aria-labelledby="title desc">
  <title id="title">ITS JPO TRB site preview</title>
  <desc id="desc">An illustrated browser-style preview for the TRB toolkit call to action.</desc>
  <defs>
    <linearGradient id="page" x1="0" x2="1" y1="0" y2="1">
      <stop offset="0%" stop-color="#f6f4ef" />
      <stop offset="100%" stop-color="#dfe7ef" />
    </linearGradient>
    <linearGradient id="hero" x1="0" x2="1" y1="0" y2="1">
      <stop offset="0%" stop-color="#0d3b66" />
      <stop offset="100%" stop-color="#1b4965" />
    </linearGradient>
  </defs>
  <rect width="1600" height="980" rx="42" fill="#c8d6e5" />
  <rect x="64" y="64" width="1472" height="852" rx="34" fill="#ffffff" />
  <rect x="64" y="64" width="1472" height="84" rx="34" fill="#edf2f7" />
  <circle cx="116" cy="106" r="12" fill="#ef476f" />
  <circle cx="156" cy="106" r="12" fill="#ffd166" />
  <circle cx="196" cy="106" r="12" fill="#06d6a0" />
  <rect x="248" y="88" width="1020" height="36" rx="18" fill="#ffffff" stroke="#cbd5e0" stroke-width="2" />
  <text x="286" y="112" fill="#52616b" font-family="Arial, sans-serif" font-size="20">its.dot.gov/trb2025/</text>
  <rect x="112" y="188" width="1376" height="258" rx="30" fill="url(#hero)" />
  <text x="162" y="258" fill="#f2cc8f" font-family="Arial, sans-serif" font-size="24" letter-spacing="4">ITS JPO AT TRB</text>
  <text x="162" y="338" fill="#ffffff" font-family="Georgia, serif" font-size="68" font-weight="700">Conference activities, booth details,</text>
  <text x="162" y="408" fill="#ffffff" font-family="Georgia, serif" font-size="68" font-weight="700">and media-ready resources</text>
  <rect x="1112" y="234" width="300" height="164" rx="28" fill="#f2cc8f" />
  <text x="1162" y="304" fill="#0d3b66" font-family="Georgia, serif" font-size="42" font-weight="700">TRB 2026</text>
  <text x="1162" y="350" fill="#0d3b66" font-family="Arial, sans-serif" font-size="24">Preview card for the toolkit CTA</text>
  <rect x="112" y="506" width="422" height="320" rx="28" fill="url(#page)" stroke="#d9e2ec" stroke-width="3" />
  <text x="150" y="570" fill="#0d3b66" font-family="Arial, sans-serif" font-size="24" letter-spacing="3">FEATURED</text>
  <text x="150" y="632" fill="#102a43" font-family="Georgia, serif" font-size="46" font-weight="700">Booth schedule</text>
  <text x="150" y="688" fill="#243b53" font-family="Arial, sans-serif" font-size="28">Keep booth logistics and sessions in one place.</text>
  <rect x="590" y="506" width="422" height="320" rx="28" fill="url(#page)" stroke="#d9e2ec" stroke-width="3" />
  <text x="628" y="570" fill="#0d3b66" font-family="Arial, sans-serif" font-size="24" letter-spacing="3">MEDIA</text>
  <text x="628" y="632" fill="#102a43" font-family="Georgia, serif" font-size="46" font-weight="700">Toolkit resources</text>
  <text x="628" y="688" fill="#243b53" font-family="Arial, sans-serif" font-size="28">Connect visitors to fact sheets, graphics, and presentations.</text>
  <rect x="1068" y="506" width="420" height="320" rx="28" fill="url(#page)" stroke="#d9e2ec" stroke-width="3" />
  <text x="1106" y="570" fill="#0d3b66" font-family="Arial, sans-serif" font-size="24" letter-spacing="3">FOLLOW-UP</text>
  <text x="1106" y="632" fill="#102a43" font-family="Georgia, serif" font-size="46" font-weight="700">Event recap</text>
  <text x="1106" y="688" fill="#243b53" font-family="Arial, sans-serif" font-size="28">Support post-event sharing with a single call to action.</text>
</svg>